<svg xmlns="http://www.w3.org/2000/svg" width="117.093" height="107.985" viewBox="0 0 117.093 107.985">
  <path id="excess" d="M53.407,42.564l22.379,9.474,22.389-9.474L75.786,33.09Zm59.8.561a1.457,1.457,0,0,0,1.458,1.458h4.652V49.24a1.458,1.458,0,1,0,2.915,0V44.583H126.9a1.458,1.458,0,0,0,0-2.915h-4.662V37.013a1.458,1.458,0,1,0-2.915,0v4.655H114.67A1.459,1.459,0,0,0,113.212,43.125ZM25.485,49.24V44.583h4.652a1.458,1.458,0,0,0,0-2.915H25.485V37.013a1.458,1.458,0,1,0-2.915,0v4.655H17.908a1.458,1.458,0,0,0,0,2.915h4.662V49.24a1.458,1.458,0,1,0,2.915,0Zm4.652,85.3a1.458,1.458,0,1,0,0-2.915H25.485v-4.655a1.458,1.458,0,0,0-2.915,0v4.655H17.908a1.458,1.458,0,1,0,0,2.915h4.662v4.655a1.458,1.458,0,1,0,2.915,0v-4.655Zm88.262-1.458a1.457,1.457,0,0,0,1.458,1.458h4.662v4.655a1.458,1.458,0,1,0,2.915,0v-4.655h4.652a1.458,1.458,0,0,0,0-2.915h-4.652v-4.655a1.458,1.458,0,0,0-2.915,0v4.655h-4.662A1.46,1.46,0,0,0,118.4,133.078Zm-44.07-1.03H69.676a1.458,1.458,0,1,0,0,2.915h4.652v4.655a1.458,1.458,0,1,0,2.915,0v-4.655h4.662a1.458,1.458,0,0,0,0-2.915H77.244v-4.655a1.458,1.458,0,1,0-2.915,0ZM27.28,82.4l22.389,9.474L72.047,82.4,49.668,72.923Zm20.931,37.635L25,110.211V84.6l23.212,9.824Zm26.118-9.822-23.2,9.822V94.423l23.2-9.824Zm26.127,9.822V94.423L77.244,84.6v25.612ZM126.573,84.6l-23.2,9.824v25.61l23.2-9.822Zm-24.66-11.675L124.292,82.4l-22.379,9.474L79.525,82.4ZM77.244,54.587l23.212-9.824V70.375L77.244,80.2Zm-2.915,0V80.2l-23.2-9.824V44.763Z" transform="translate(-16.45 -33.09)" fill="rgba(226,107,21,0.08)" fill-rule="evenodd"/>
</svg>
